<svg xmlns="http://www.w3.org/2000/svg" fill="none" viewBox="0 0 244 48">
  <g clip-path="url(#a)">
    <path fill="#fff" d="M168.422 17.23c1.491.76 2.641 1.848 3.455 3.269.813 1.421 1.22 3.075 1.22 4.969 0 1.894-.407 3.536-1.22 4.926-.814 1.39-1.964 2.46-3.455 3.199-1.491.74-3.226 1.111-5.209 1.111h-6.08V16.093h6.08c1.983 0 3.718.38 5.209 1.138Zm-.201 13.214c1.162-1.177 1.739-2.838 1.739-4.98 0-2.142-.581-3.846-1.739-5.062-1.162-1.212-2.831-1.82-5.008-1.82h-3.025v13.632h3.025c2.177 0 3.846-.588 5.008-1.766v-.004Zm8.892 3.548a6.844 6.844 0 0 1-2.653-2.68c-.643-1.15-.964-2.486-.964-4.005 0-1.518.329-2.83.991-3.989a6.84 6.84 0 0 1 2.703-2.68c1.143-.623 2.421-.937 3.831-.937 1.409 0 2.687.314 3.83.937a6.814 6.814 0 0 1 2.703 2.68c.658 1.162.991 2.49.991 3.99 0 1.498-.34 2.83-1.018 3.988a7.043 7.043 0 0 1-2.773 2.692c-1.17.635-2.459.949-3.869.949-1.41 0-2.653-.318-3.776-.949l.004.004Zm5.983-2.262c.686-.375 1.247-.937 1.673-1.688.43-.752.643-1.662.643-2.73 0-1.07-.205-1.976-.615-2.72-.411-.74-.957-1.297-1.635-1.672a4.456 4.456 0 0 0-2.196-.562 4.39 4.39 0 0 0-2.184.561c-.67.376-1.201.934-1.592 1.674-.391.74-.588 1.645-.588 2.718 0 1.588.406 2.816 1.22 3.683.813.868 1.835 1.298 3.067 1.298.786 0 1.522-.186 2.207-.562Zm27.827-11.3c.918.48 1.642 1.196 2.168 2.14.527.946.791 2.088.791 3.428v8.703h-3.025v-8.25c0-1.32-.329-2.335-.992-3.04-.662-.705-1.56-1.057-2.703-1.057-1.142 0-2.049.352-2.719 1.057-.67.705-1.003 1.72-1.003 3.04v8.25h-3.024v-8.25c0-1.32-.33-2.335-.992-3.04-.662-.705-1.561-1.057-2.703-1.057s-2.049.352-2.719 1.057c-.67.705-1.003 1.72-1.003 3.04v8.25h-3.052V19.945h3.052v1.689a5.095 5.095 0 0 1 1.902-1.422 5.992 5.992 0 0 1 2.463-.507c1.177 0 2.231.252 3.16.751a5.12 5.12 0 0 1 2.142 2.17c.445-.892 1.142-1.604 2.087-2.13a6.173 6.173 0 0 1 3.052-.791c1.162 0 2.2.24 3.122.724h-.004Zm17.714 6.293a4.648 4.648 0 0 1 1.046 2.974c0 .945-.244 1.797-.736 2.556-.492.76-1.201 1.355-2.13 1.793-.93.438-2.01.655-3.242.655h-7.443V16.088h7.095c1.266 0 2.354.213 3.268.643.911.43 1.596 1.003 2.061 1.727.465.724.697 1.53.697 2.424 0 1.073-.287 1.964-.856 2.676-.573.713-1.34 1.244-2.304 1.58.999.179 1.847.705 2.544 1.58v.005Zm-9.453-2.812h3.776c.999 0 1.781-.229 2.343-.682.561-.453.844-1.111.844-1.967 0-.856-.283-1.495-.844-1.968-.562-.472-1.344-.708-2.343-.708h-3.776v5.329-.004Zm6.56 7.552c.589-.5.883-1.197.883-2.088 0-.89-.314-1.634-.937-2.168-.624-.535-1.456-.802-2.49-.802h-4.016v5.81h4.124c1.034 0 1.847-.253 2.436-.752Zm10.457-11.127c.739-.418 1.619-.627 2.637-.627v3.16h-.778c-1.197 0-2.103.302-2.719.91-.616.608-.922 1.662-.922 3.16v7.766h-3.052V19.949h3.052v2.142a4.752 4.752 0 0 1 1.782-1.755Zm3.656 13.993c-.376-.376-.562-.84-.562-1.394 0-.554.186-1.019.562-1.395.375-.375.84-.561 1.394-.561.554 0 .991.186 1.367.561.376.376.562.84.562 1.395 0 .553-.186 1.018-.562 1.394a1.857 1.857 0 0 1-1.367.561 1.916 1.916 0 0 1-1.394-.561Z"/>
    <path fill="#FF0" d="M33.295 0H14.717C6.623 0 0 6.623 0 14.717v18.566C0 41.377 6.623 48 14.717 48h18.578c8.094 0 14.717-6.623 14.717-14.717V14.717C48.012 6.623 41.389 0 33.295 0Zm5.255 28.864c0 5.325-4.357 9.682-9.682 9.682h-9.732c-5.325 0-9.682-4.357-9.682-9.682V19.28c0-5.325 4.357-9.682 9.682-9.682h9.732c5.325 0 9.682 4.357 9.682 9.682v9.585Z"/>
    <path fill="red" d="M83.688 0H65.106C57.012 0 50.39 6.623 50.39 14.717v18.566C50.39 41.377 57.011 48 65.105 48h18.582c8.094 0 14.717-6.623 14.717-14.717V14.717C98.405 6.623 91.782 0 83.688 0Zm5.256 28.864c0 5.325-4.357 9.682-9.682 9.682h-9.737c-5.325 0-9.682-4.357-9.682-9.682V19.28c0-5.325 4.357-9.682 9.682-9.682h9.737c5.325 0 9.682 4.357 9.682 9.682v9.585Z"/>
    <path fill="#79009B" d="M134.078 0H115.5c-8.094 0-14.717 6.623-14.717 14.717v18.566c0 8.094 6.623 14.717 14.717 14.717h18.578c8.094 0 14.717-6.623 14.717-14.717V14.717C148.795 6.623 142.172 0 134.078 0Zm5.255 28.864c0 5.325-4.357 9.682-9.682 9.682h-9.736c-5.325 0-9.682-4.357-9.682-9.682V19.28c0-5.325 4.357-9.682 9.682-9.682h9.736c5.325 0 9.682 4.357 9.682 9.682v9.585Z"/>
  </g>
  <defs>
    <clipPath id="a">
      <path fill="#fff" d="M0 0h243.18v48H0z"/>
    </clipPath>
  </defs>
</svg>